<svg xmlns="http://www.w3.org/2000/svg" viewBox="0 0 333334 299401" shape-rendering="geometricPrecision" text-rendering="geometricPrecision" image-rendering="optimizeQuality" fill-rule="evenodd" clip-rule="evenodd"><path fill="#00d1bc" d="M167982 0c28253 0 51158 22905 51158 51158s-22905 51158-51158 51158-51158-22905-51158-51158S139729 0 167982 0zM81903 128986c7217-10324 17055-11216 31481-12896h107233c16651 3043 28395 5937 36400 19784l62963 86095c7179 9815 13383 15964 13352 29033-26 10692-5179 20500-13661 26023-10897 7097-19245 5007-30258 1164l-43220-15086v36299H85835v-34159l-50173 14755c-16372 3558-28072-2515-32836-13939-7910-18972 2218-31937 12603-45939l66471-91135zm5409 77228v-61486l79688 27053 80671-29021v63946c-55683-11664-58028 38815-23611 55093l-58044 18199-56075-19674c35407-16262 28199-68500-22629-54110z"/></svg>